<svg width="13" height="14" viewBox="0 0 13 14" fill="none" xmlns="http://www.w3.org/2000/svg">
<path d="M6.5 13.5C10.0899 13.5 13 10.5899 13 7C13 3.41015 10.0899 0.5 6.5 0.5C2.91015 0.5 0 3.41015 0 7C0 10.5899 2.91015 13.5 6.5 13.5Z" fill="#A48E64"/>
<path d="M8.8549 7.47882C8.66144 7.27412 8.34123 7.27412 8.14777 7.47882L7.00033 8.69294V5.02941C7.00033 4.74 6.77352 4.5 6.5 4.5C6.22648 4.5 5.99967 4.74 5.99967 5.02941V8.69294L4.85223 7.47882C4.65877 7.27412 4.33856 7.27412 4.1451 7.47882C3.95163 7.68353 3.95163 8.02235 4.1451 8.22706L6.14643 10.3447C6.2465 10.4506 6.37325 10.5 6.5 10.5C6.62675 10.5 6.7535 10.4506 6.85357 10.3447L8.8549 8.22706C9.04837 8.02235 9.04837 7.68353 8.8549 7.47882Z" fill="#F6F0E5"/>
</svg>
