<svg width="14" height="14" viewBox="0 0 14 14" fill="none" xmlns="http://www.w3.org/2000/svg">
<path d="M8.23813 7.00023L11.9963 3.24211C12.1604 3.07792 12.2527 2.85524 12.2527 2.62305C12.2527 2.39085 12.1604 2.16817 11.9963 2.00398C11.8321 1.8398 11.6094 1.74756 11.3772 1.74756C11.145 1.74756 10.9223 1.8398 10.7581 2.00398L7.00001 5.76211L3.24188 2.00836C3.07449 1.86501 2.85918 1.7901 2.63896 1.79861C2.41874 1.80712 2.20985 1.89841 2.05402 2.05424C1.89818 2.21007 1.80689 2.41897 1.79839 2.63919C1.78988 2.8594 1.86479 3.07472 2.00813 3.24211L5.76188 7.00023L2.00813 10.7584C1.84395 10.9225 1.75171 11.1452 1.75171 11.3774C1.75171 11.6096 1.84395 11.8323 2.00813 11.9965C2.17232 12.1607 2.395 12.2529 2.6272 12.2529C2.85939 12.2529 3.08207 12.1607 3.24626 11.9965L7.00001 8.23836L10.7581 11.9965C10.9223 12.1607 11.145 12.2529 11.3772 12.2529C11.6094 12.2529 11.8321 12.1607 11.9963 11.9965C12.1604 11.8323 12.2527 11.6096 12.2527 11.3774C12.2527 11.1452 12.1604 10.9225 11.9963 10.7584L8.23813 7.00023Z" fill="#2B4551"/>
</svg>
