<svg width="18" height="18" viewBox="0 0 18 18" fill="none" xmlns="http://www.w3.org/2000/svg">
<path d="M14.5441 4.68984C14.4598 4.37344 14.4035 4.19766 14.4035 4.19766C14.3121 3.8707 14.0801 3.8707 13.7355 3.81445L11.8688 3.57891C11.6367 3.54023 11.6367 3.54023 11.5453 3.33984C11.2395 2.65078 11.1445 2.25 10.8105 2.25H7.18945C6.85547 2.25 6.76406 2.65078 6.4582 3.34336C6.3668 3.54023 6.3668 3.54023 6.13476 3.58242L4.26445 3.81797C3.92344 3.87422 3.67734 3.90586 3.58594 4.23281C3.58594 4.23281 3.54375 4.37695 3.45586 4.68984C3.34336 5.1082 3.29766 5.0625 3.68437 5.0625H14.3156C14.7023 5.06602 14.6602 5.1082 14.5441 4.68984Z" fill="#9DAEB6"/>
<path d="M13.3383 6.1875H4.66172C4.07812 6.1875 4.05 6.26484 4.08515 6.7043L4.74258 15.2332C4.79883 15.6656 4.84101 15.7535 5.35781 15.7535H12.6422C13.159 15.7535 13.2012 15.6656 13.2574 15.2332L13.9148 6.7043C13.95 6.26133 13.9219 6.1875 13.3383 6.1875Z" fill="#9DAEB6"/>
</svg>
