<svg width="13" height="14" viewBox="0 0 13 14" fill="none" xmlns="http://www.w3.org/2000/svg">
<path d="M12.9695 7.00625C11.4359 5.375 9.31667 3.5 6.5 3.5C5.3625 3.5 4.31979 3.79688 3.21953 4.43125C2.29193 4.96875 1.34063 5.725 0.0338542 6.96875L0 7L0.226823 7.21562C2.09219 8.97812 3.70365 10.5 6.5 10.5C7.73568 10.5 8.93412 10.1281 10.163 9.3625C11.2091 8.70938 12.0995 7.88125 12.8138 7.2125L13 7.04062L12.9695 7.00625ZM6.5 9.5C5.00703 9.5 3.79167 8.37813 3.79167 7C3.79167 5.62188 5.00703 4.5 6.5 4.5C7.99297 4.5 9.20833 5.62188 9.20833 7C9.20833 8.37813 7.99297 9.5 6.5 9.5Z" fill="#2B4551"/>
<path d="M6.32638 6.08567C6.32638 5.87072 6.38895 5.66822 6.49844 5.5C5.66945 5.5 5 6.1729 5 7.00156C5 7.83022 5.67258 8.5 6.49844 8.5C7.3243 8.5 8 7.83022 8 7.00156C7.83107 7.11059 7.62774 7.1729 7.41189 7.1729C6.81439 7.16978 6.32638 6.6838 6.32638 6.08567Z" fill="#2B4551"/>
</svg>
