<svg class="svg-icon" style="width: 1em; height: 1em;vertical-align: middle;fill: currentColor;overflow: hidden;" viewBox="0 0 1024 1024" version="1.1" xmlns="http://www.w3.org/2000/svg"><path d="M832 548.006c0-23.564 19.103-42.667 42.667-42.667s42.666 19.103 42.666 42.667V846.56c0 38.945-31.637 70.435-70.564 70.435H177.231c-38.927 0-70.564-31.49-70.564-70.435V324.08c0-27.701 16.261-52.803 42.113-64.454l295.445-127.8a170.667 170.667 0 0 1 135.554 0.018L875.468 259.84c25.442 11.306 41.865 36.506 41.865 64.347v91.771c0 23.564-19.102 42.667-42.666 42.667-23.564 0-42.667-19.103-42.667-42.667v-81.951L545.88 210.154a85.333 85.333 0 0 0-67.776-0.008L192 333.899v497.764h640V548.006zM295.753 440.687h53.478c14.768 0 26.74 12.646 26.74 28.244v56.488c0 15.598-11.972 28.244-26.74 28.244h-53.478c-14.768 0-26.74-12.646-26.74-28.244V468.93c0-15.598 11.972-28.244 26.74-28.244z m187.175 0h53.478c14.768 0 26.74 12.646 26.74 28.244v56.488c0 15.598-11.972 28.244-26.74 28.244h-53.478c-14.768 0-26.74-12.646-26.74-28.244V468.93c0-15.598 11.972-28.244 26.74-28.244zM295.753 638.394h53.478c14.768 0 26.74 12.645 26.74 28.244v56.487c0 15.6-11.972 28.244-26.74 28.244h-53.478c-14.768 0-26.74-12.645-26.74-28.244v-56.487c0-15.599 11.972-28.244 26.74-28.244z m187.175 0h53.478c14.768 0 26.74 12.645 26.74 28.244v56.487c0 15.6-11.972 28.244-26.74 28.244h-53.478c-14.768 0-26.74-12.645-26.74-28.244v-56.487c0-15.599 11.972-28.244 26.74-28.244z m187.174 0h53.479c14.768 0 26.74 12.645 26.74 28.244v56.487c0 15.6-11.972 28.244-26.74 28.244h-53.479c-14.767 0-26.739-12.645-26.739-28.244v-56.487c0-15.599 11.972-28.244 26.74-28.244z"  /></svg>