<svg width="44" height="44" viewBox="0 0 44 44" fill="none" xmlns="http://www.w3.org/2000/svg">
<path d="M16.5 3.66669H27.5C36.6667 3.66669 40.3334 7.33335 40.3334 16.5V27.5C40.3334 36.6667 36.6667 40.3334 27.5 40.3334H16.5C7.33335 40.3334 3.66669 36.6667 3.66669 27.5V16.5C3.66669 7.33335 7.33335 3.66669 16.5 3.66669Z" stroke="#D3B67D" stroke-width="2" stroke-linecap="round" stroke-linejoin="round"/>
<path d="M15.7118 27.995L27.7018 16.005" stroke="#D3B67D" stroke-width="2" stroke-linecap="round" stroke-linejoin="round"/>
<path d="M16.4633 19.0116C17.7087 19.0116 18.7183 18.0021 18.7183 16.7567C18.7183 15.5113 17.7087 14.5016 16.4633 14.5016C15.2179 14.5016 14.2083 15.5113 14.2083 16.7567C14.2083 18.0021 15.2179 19.0116 16.4633 19.0116Z" stroke="#D3B67D" stroke-width="2" stroke-linecap="round" stroke-linejoin="round"/>
<path d="M28.4534 29.4983C29.6988 29.4983 30.7084 28.4887 30.7084 27.2433C30.7084 25.9979 29.6988 24.9883 28.4534 24.9883C27.208 24.9883 26.1984 25.9979 26.1984 27.2433C26.1984 28.4887 27.208 29.4983 28.4534 29.4983Z" stroke="#D3B67D" stroke-width="2" stroke-linecap="round" stroke-linejoin="round"/>
</svg>
