<svg width="12" height="12" viewBox="0 0 12 12" fill="none" xmlns="http://www.w3.org/2000/svg">
<path d="M11.25 3C11.25 3.19191 11.1768 3.38391 11.0303 3.53016L5.03027 9.53016C4.88438 9.67734 4.69219 9.75 4.5 9.75C4.30781 9.75 4.11609 9.67676 3.96984 9.53027L0.969844 6.53027C0.823359 6.38438 0.75 6.19219 0.75 6C0.75 5.57156 1.10039 5.25 1.5 5.25C1.69191 5.25 1.88391 5.32324 2.03016 5.46973L4.5 7.94062L9.97031 2.47031C10.1156 2.32336 10.3078 2.25 10.5 2.25C10.9008 2.25 11.25 2.57109 11.25 3Z" fill="white"/>
</svg>
