<svg width="44" height="44" viewBox="0 0 44 44" fill="none" xmlns="http://www.w3.org/2000/svg">
<circle cx="22" cy="22" r="22" fill="#EEF1F4"/>
<path d="M24.9937 14.5227C24.2336 13.702 23.1719 13.25 22 13.25C20.8219 13.25 19.7566 13.6992 19 14.5148C18.2351 15.3395 17.8625 16.4602 17.95 17.6703C18.1234 20.0578 19.9402 22 22 22C24.0597 22 25.8734 20.0582 26.0496 17.6711C26.1383 16.4719 25.7633 15.3535 24.9937 14.5227Z" fill="#879197"/>
<path d="M28.875 30.75H15.125C14.945 30.7523 14.7668 30.7145 14.6032 30.6393C14.4397 30.5641 14.295 30.4534 14.1797 30.3152C13.9258 30.0117 13.8234 29.5973 13.8992 29.1781C14.2289 27.3492 15.2578 25.8129 16.875 24.7344C18.3117 23.777 20.1316 23.25 22 23.25C23.8683 23.25 25.6883 23.7773 27.125 24.7344C28.7422 25.8125 29.7711 27.3488 30.1008 29.1777C30.1765 29.5969 30.0742 30.0113 29.8203 30.3148C29.705 30.4531 29.5603 30.5639 29.3968 30.6391C29.2332 30.7144 29.055 30.7523 28.875 30.75Z" fill="#879197"/>
</svg>
