<svg width="14" height="14" viewBox="0 0 14 14" fill="none" xmlns="http://www.w3.org/2000/svg">
<path d="M7.5 13.5C11.0899 13.5 14 10.5899 14 7C14 3.41015 11.0899 0.5 7.5 0.5C3.91015 0.5 1 3.41015 1 7C1 10.5899 3.91015 13.5 7.5 13.5Z" fill="#2B4551"/>
<path d="M5.1451 7.52118C5.33856 7.72588 5.65877 7.72588 5.85223 7.52118L6.99967 6.30706L6.99967 9.97059C6.99967 10.26 7.22648 10.5 7.5 10.5C7.77352 10.5 8.00033 10.26 8.00033 9.97059L8.00033 6.30706L9.14777 7.52118C9.34123 7.72588 9.66144 7.72588 9.8549 7.52118C10.0484 7.31647 10.0484 6.97765 9.8549 6.77294L7.85357 4.65529C7.7535 4.54941 7.62675 4.5 7.5 4.5C7.37325 4.5 7.2465 4.54941 7.14643 4.65529L5.1451 6.77294C4.95163 6.97765 4.95163 7.31647 5.1451 7.52118Z" fill="#F1F4F6"/>
</svg>
