<svg width="13" height="14" viewBox="0 0 13 14" fill="none" xmlns="http://www.w3.org/2000/svg">
<g id="Layer_2" clip-path="url(#clip0_59_2034)">
<g id="Group">
<path id="Vector" d="M4.67713 13.2364C5.87277 13.2364 6.99656 12.7709 7.84208 11.9254L11.848 7.91954C12.4598 7.30768 12.7969 6.4929 12.7969 5.62545C12.7969 4.75763 12.4598 3.94286 11.848 3.331C10.5828 2.06578 8.52428 2.06578 7.25984 3.331L3.6894 6.90183C3.30968 7.28155 3.10061 7.78693 3.10061 8.32499C3.10061 8.86345 3.30968 9.36884 3.6894 9.74818C4.06872 10.1279 4.57373 10.3373 5.11219 10.3373C5.65063 10.3373 6.15641 10.1283 6.53575 9.74818L9.57695 6.70696C9.88134 6.40257 9.88134 5.90678 9.57695 5.6024C9.27219 5.298 8.776 5.298 8.47201 5.6024L5.43118 8.64322C5.25516 8.8181 4.96922 8.81848 4.79397 8.64362C4.61871 8.46797 4.61871 8.18203 4.79397 8.0064L8.3644 4.43557C9.02121 3.77953 10.0877 3.7803 10.743 4.43557C11.0609 4.7538 11.2357 5.17619 11.2357 5.62546C11.2357 6.07436 11.0609 6.49636 10.743 6.81458L6.73751 10.8205C6.18715 11.3708 5.45538 11.6737 4.67713 11.6737C3.89885 11.6737 3.16748 11.3708 2.61712 10.8205C2.06752 10.2713 1.76504 9.53948 1.76504 8.76046C1.76504 7.98141 2.06752 7.24964 2.61712 6.70005L7.21986 2.09693C7.52425 1.79254 7.52425 1.29675 7.21986 0.991965C6.91547 0.687574 6.41968 0.687574 6.1153 0.991965L1.51216 5.59548C0.668163 6.43947 0.203125 7.56325 0.203125 8.76045C0.203125 9.95726 0.668163 11.0814 1.51216 11.9254C2.35692 12.7709 3.4811 13.2364 4.67713 13.2364Z" fill="#879197"/>
</g>
</g>
<defs>
<clipPath id="clip0_59_2034">
<rect width="13" height="13" fill="white" transform="translate(0 0.5)"/>
</clipPath>
</defs>
</svg>
