<svg width="44" height="44" viewBox="0 0 44 44" fill="none" xmlns="http://www.w3.org/2000/svg">
<path d="M33.0733 24.8416C32.3033 25.5933 31.8633 26.675 31.9733 27.83C32.1383 29.81 33.9533 31.2583 35.9333 31.2583H39.4167V33.44C39.4167 37.235 36.3183 40.3333 32.5233 40.3333H13.9883C14.5567 39.8566 15.0517 39.27 15.4367 38.61C16.115 37.51 16.5 36.2083 16.5 34.8333C16.5 30.7816 13.2183 27.5 9.16666 27.5C7.44333 27.5 5.84833 28.105 4.58333 29.1133V21.1017C4.58333 17.3067 7.68165 14.2083 11.4767 14.2083H32.5233C36.3183 14.2083 39.4167 17.3067 39.4167 21.1017V23.7417H35.7133C34.6867 23.7417 33.7517 24.145 33.0733 24.8416Z" stroke="#D3B67D" stroke-width="2" stroke-linecap="round" stroke-linejoin="round"/>
<path d="M4.58333 22.7516V14.3734C4.58333 12.1917 5.92165 10.2483 7.95665 9.47832L22.5133 3.97832C24.7867 3.11666 27.225 4.80338 27.225 7.24171V14.2084" stroke="#D3B67D" stroke-width="2" stroke-linecap="round" stroke-linejoin="round"/>
<path d="M41.3578 25.6119V29.3887C41.3578 30.397 40.5512 31.222 39.5245 31.2586H35.9312C33.9512 31.2586 32.1362 29.8103 31.9712 27.8303C31.8612 26.6753 32.3011 25.5936 33.0711 24.842C33.7495 24.1453 34.6845 23.742 35.7112 23.742H39.5245C40.5512 23.7787 41.3578 24.6036 41.3578 25.6119Z" stroke="#D3B67D" stroke-width="2" stroke-linecap="round" stroke-linejoin="round"/>
<path d="M12.8333 22H25.6667" stroke="#D3B67D" stroke-width="2" stroke-linecap="round" stroke-linejoin="round"/>
<path d="M16.5 34.8333C16.5 36.2083 16.115 37.51 15.4367 38.61C15.0517 39.27 14.5567 39.8567 13.9883 40.3333C12.705 41.4883 11.0183 42.1667 9.16666 42.1667C6.48999 42.1667 4.16166 40.7367 2.89666 38.61C2.21833 37.51 1.83333 36.2083 1.83333 34.8333C1.83333 32.5233 2.89666 30.4517 4.58333 29.1133C5.84833 28.105 7.44333 27.5 9.16666 27.5C13.2183 27.5 16.5 30.7817 16.5 34.8333Z" stroke="#D3B67D" stroke-width="2" stroke-miterlimit="10" stroke-linecap="round" stroke-linejoin="round"/>
<path d="M6.30923 34.8325L8.12422 36.6474L12.0292 33.0358" stroke="#D3B67D" stroke-width="2" stroke-linecap="round" stroke-linejoin="round"/>
</svg>
