<svg width="19" height="18" viewBox="0 0 19 18" fill="none" xmlns="http://www.w3.org/2000/svg">
<g id="Layer_1" clip-path="url(#clip0_49_3156)">
<g id="Group">
<path id="Vector" d="M18.4578 9.00893C16.3344 6.67857 13.4 4 9.5 4C7.925 4 6.48125 4.42411 4.95781 5.33036C3.67344 6.09821 2.35625 7.17857 0.546875 8.95536L0.5 9L0.814062 9.30804C3.39687 11.8259 5.62813 14 9.5 14C11.2109 14 12.8703 13.4688 14.5719 12.375C16.0203 11.442 17.2531 10.2589 18.2422 9.30357L18.5 9.05804L18.4578 9.00893ZM9.5 12.5714C7.43281 12.5714 5.75 10.9688 5.75 9C5.75 7.03125 7.43281 5.42857 9.5 5.42857C11.5672 5.42857 13.25 7.03125 13.25 9C13.25 10.9688 11.5672 12.5714 9.5 12.5714Z" fill="#A48E64"/>
<path id="Vector_2" d="M9.26851 7.78089C9.26851 7.49429 9.35193 7.2243 9.49791 7C8.3926 7 7.5 7.8972 7.5 9.00208C7.5 10.107 8.39677 11 9.49791 11C10.5991 11 11.5 10.107 11.5 9.00208C11.2748 9.14746 11.0036 9.23053 10.7159 9.23053C9.91919 9.22638 9.26851 8.5784 9.26851 7.78089Z" fill="#A48E64"/>
</g>
</g>
<defs>
<clipPath id="clip0_49_3156">
<rect width="18" height="18" fill="white" transform="translate(0.5)"/>
</clipPath>
</defs>
</svg>
