<svg width="14" height="14" viewBox="0 0 14 14" fill="none" xmlns="http://www.w3.org/2000/svg">
<g clip-path="url(#clip0_59_1984)">
<path d="M2.12463 6.99993C2.12463 6.24572 2.42423 5.5224 2.95754 4.98909C3.49085 4.45578 4.21417 4.15617 4.96838 4.15617H8.36463L7.74713 4.31461L7.23525 4.82649C7.15976 4.90198 7.09988 4.9916 7.05902 5.09023C7.01817 5.18886 6.99714 5.29457 6.99714 5.40133C6.99714 5.50809 7.01817 5.6138 7.05902 5.71243C7.09988 5.81107 7.15976 5.90069 7.23525 5.97618C7.31074 6.05166 7.40036 6.11155 7.49899 6.1524C7.59762 6.19326 7.70334 6.21428 7.81009 6.21428C7.91685 6.21428 8.02257 6.19326 8.1212 6.1524C8.21983 6.11155 8.30945 6.05166 8.38494 5.97617L10.4162 3.94492C10.4917 3.86947 10.5517 3.77986 10.5925 3.68122C10.6334 3.58258 10.6545 3.47686 10.6545 3.37008C10.6545 3.26331 10.6334 3.15758 10.5925 3.05894C10.5517 2.96031 10.4917 2.8707 10.4162 2.79524L8.38494 0.763987C8.23248 0.611529 8.0257 0.525879 7.81009 0.525879C7.59449 0.525879 7.38771 0.611529 7.23525 0.763987C7.08279 0.916445 6.99714 1.12322 6.99714 1.33883C6.99714 1.55444 7.08279 1.76122 7.23525 1.91367L7.71056 2.38899L8.34025 2.53117H4.96838C4.10679 2.53115 3.26356 2.7802 2.54025 3.24833C1.81693 3.71646 1.24436 4.38371 0.891492 5.16972C0.538623 5.95573 0.420501 6.82699 0.551349 7.67859C0.682197 8.53018 1.05644 9.32579 1.629 9.96961C1.69996 10.0496 1.78598 10.1149 1.88216 10.1617C1.97833 10.2085 2.08278 10.2358 2.18954 10.2423C2.2963 10.2487 2.40328 10.234 2.50436 10.1991C2.60545 10.1641 2.69866 10.1096 2.77869 10.0387C2.85871 9.96772 2.92398 9.8817 2.97076 9.78552C3.01754 9.68934 3.04491 9.58489 3.05133 9.47813C3.05774 9.37138 3.04306 9.2644 3.00813 9.16331C2.9732 9.06223 2.91871 8.96901 2.84775 8.88899C2.38334 8.3692 2.12601 7.69696 2.12463 6.99993Z" fill="#A48E64"/>
<path d="M12.3543 4.01005C12.2099 3.84843 12.0072 3.75079 11.7909 3.7386C11.5745 3.72641 11.3621 3.80067 11.2005 3.94505C11.0389 4.08943 10.9413 4.29209 10.9291 4.50846C10.9169 4.72483 10.9911 4.93718 11.1355 5.0988C11.5024 5.50684 11.7433 6.0123 11.8294 6.55422C11.9154 7.09613 11.8428 7.65137 11.6204 8.15296C11.3979 8.65455 11.0351 9.08107 10.5757 9.38109C10.1163 9.6811 9.57985 9.8418 9.03115 9.8438H5.78115L6.2849 9.67317L6.75615 9.20192C6.9086 9.04947 6.99426 8.84269 6.99426 8.62708C6.99426 8.41147 6.9086 8.20469 6.75615 8.05224C6.60369 7.89978 6.39691 7.81413 6.1813 7.81413C5.96569 7.81413 5.75892 7.89978 5.60646 8.05224L3.57521 10.0835C3.49967 10.1589 3.43974 10.2486 3.39885 10.3472C3.35796 10.4458 3.33691 10.5516 3.33691 10.6583C3.33691 10.7651 3.35796 10.8708 3.39885 10.9695C3.43974 11.0681 3.49967 11.1577 3.57521 11.2332L5.60646 13.2644C5.75892 13.4169 5.96569 13.5025 6.1813 13.5025C6.39691 13.5025 6.60369 13.4169 6.75615 13.2644C6.9086 13.112 6.99426 12.9052 6.99426 12.6896C6.99426 12.474 6.9086 12.2672 6.75615 12.1147L6.26052 11.6191L5.78115 11.4688H9.03115C9.89522 11.4692 10.7409 11.2191 11.4657 10.7487C12.1905 10.2784 12.7635 9.60797 13.1151 8.81869C13.4668 8.02941 13.5821 7.15511 13.447 6.30166C13.312 5.44821 12.9324 4.65221 12.3543 4.01005Z" fill="#A48E64"/>
</g>
<defs>
<clipPath id="clip0_59_1984">
<rect width="13" height="13" fill="white" transform="translate(0.5 0.5)"/>
</clipPath>
</defs>
</svg>
