<svg width="14" height="14" viewBox="0 0 14 14" fill="none" xmlns="http://www.w3.org/2000/svg">
<path d="M12.6007 3.42472C11.6315 3.339 10.743 3.28543 9.87764 3.23186L9.78533 2.71758C9.70456 2.20329 9.53149 1.14258 7.78918 1.14258H6.18533C4.4661 1.14258 4.28149 2.16043 4.18918 2.70686L4.09687 3.21043C3.60072 3.24257 3.11611 3.264 2.61995 3.30686L1.36225 3.42472C0.923785 3.46758 0.612246 3.82115 0.6584 4.22829C0.704554 4.60329 1.03918 4.89258 1.44302 4.89258C1.4661 4.89258 1.50071 4.89258 1.52378 4.89258L2.76994 4.77472C3.46225 4.72115 4.16609 4.66758 4.8584 4.63543C6.26609 4.58186 7.6738 4.60329 9.09303 4.66757C10.143 4.71043 11.2392 4.78544 12.4392 4.89258C12.4623 4.89258 12.4853 4.89258 12.5084 4.89258C12.9123 4.89258 13.2584 4.60329 13.293 4.22829C13.3507 3.82115 13.0392 3.45686 12.6007 3.42472Z" fill="#EA5F4D"/>
<path d="M11.4123 6.25358C11.2161 6.05001 10.9277 5.94287 10.6392 5.94287H3.34688C3.05842 5.94287 2.76996 6.06073 2.5738 6.25358C2.37765 6.45715 2.2738 6.72501 2.29687 6.99287L2.65458 11.2357C2.72381 12.1464 2.80457 13.2822 5.01995 13.2822H8.96612C11.1815 13.2822 11.2623 12.1464 11.3315 11.2357L11.6892 6.99287C11.7123 6.72501 11.6084 6.45715 11.4123 6.25358Z" fill="#EA5F4D"/>
</svg>
