<svg width="15" height="18" viewBox="0 0 15 18" fill="none" xmlns="http://www.w3.org/2000/svg">
<path d="M13.9626 4.05002C12.8442 3.93134 11.8191 3.85717 10.8205 3.78299L10.714 3.0709C10.6208 2.35881 10.4211 0.890137 8.41078 0.890137H6.56019C4.57646 0.890137 4.36345 2.29948 4.25694 3.05607L4.15043 3.75332C3.57795 3.79782 3.01878 3.82749 2.44629 3.88683L0.995093 4.05002C0.489176 4.10936 0.129707 4.59892 0.182962 5.16266C0.236216 5.68189 0.622322 6.08244 1.0883 6.08244C1.11493 6.08244 1.15486 6.08244 1.18148 6.08244L2.61935 5.91926C3.41817 5.84508 4.2303 5.7709 5.02912 5.7264C6.65338 5.65222 8.27765 5.68189 9.91523 5.7709C11.1268 5.83024 12.3916 5.93409 13.7762 6.08244C13.8028 6.08244 13.8294 6.08244 13.856 6.08244C14.322 6.08244 14.7214 5.68189 14.7614 5.16266C14.8279 4.59892 14.4685 4.09453 13.9626 4.05002Z" fill="#879197"/>
<path d="M12.5908 7.96635C12.3644 7.68448 12.0316 7.53613 11.6988 7.53613H3.28454C2.9517 7.53613 2.61886 7.69932 2.39253 7.96635C2.1662 8.24822 2.04637 8.6191 2.073 8.98998L2.48574 14.8647C2.56562 16.1257 2.6588 17.6982 5.21501 17.6982H9.76828C12.3245 17.6982 12.4177 16.1257 12.4976 14.8647L12.9103 8.98998C12.9369 8.6191 12.8171 8.24822 12.5908 7.96635Z" fill="#879197"/>
</svg>
