<svg width="44" height="44" viewBox="0 0 44 44" fill="none" xmlns="http://www.w3.org/2000/svg">
<path d="M33.2567 39.6367C31.6433 40.1133 29.7367 40.3334 27.5 40.3334H16.5C14.2633 40.3334 12.3567 40.1133 10.7433 39.6367C11.1467 34.87 16.0417 31.1116 22 31.1116C27.9583 31.1116 32.8533 34.87 33.2567 39.6367Z" stroke="#D3B67D" stroke-width="2" stroke-linecap="round" stroke-linejoin="round"/>
<path d="M27.5 3.66669H16.5C7.33334 3.66669 3.66667 7.33335 3.66667 16.5V27.5C3.66667 34.43 5.75667 38.225 10.7433 39.6367C11.1467 34.87 16.0417 31.1116 22 31.1116C27.9583 31.1116 32.8533 34.87 33.2567 39.6367C38.2433 38.225 40.3333 34.43 40.3333 27.5V16.5C40.3333 7.33335 36.6667 3.66669 27.5 3.66669ZM22 25.9783C18.37 25.9783 15.4367 23.0267 15.4367 19.3967C15.4367 15.7667 18.37 12.8334 22 12.8334C25.63 12.8334 28.5633 15.7667 28.5633 19.3967C28.5633 23.0267 25.63 25.9783 22 25.9783Z" stroke="#D3B67D" stroke-width="2" stroke-linecap="round" stroke-linejoin="round"/>
<path d="M28.5633 19.3967C28.5633 23.0267 25.63 25.9783 22 25.9783C18.37 25.9783 15.4367 23.0267 15.4367 19.3967C15.4367 15.7667 18.37 12.8333 22 12.8333C25.63 12.8333 28.5633 15.7667 28.5633 19.3967Z" stroke="#D3B67D" stroke-width="2" stroke-linecap="round" stroke-linejoin="round"/>
</svg>
